<svg width="1190" height="180" viewBox="0 0 1190 180" fill="none" xmlns="http://www.w3.org/2000/svg">
<path d="M230.692 178.068C222.397 178.068 214.868 176.505 208.107 173.38C201.346 170.198 195.976 165.625 191.999 159.659C188.022 153.636 186.033 146.363 186.033 137.84C186.033 130.34 187.51 124.261 190.465 119.602C193.42 114.886 197.368 111.193 202.312 108.522C207.255 105.852 212.709 103.863 218.675 102.556C224.698 101.193 230.749 100.113 236.829 99.3177C244.783 98.295 251.232 97.528 256.175 97.0166C261.175 96.4484 264.812 95.5109 267.084 94.2041C269.414 92.8973 270.579 90.6246 270.579 87.3859V86.7041C270.579 78.295 268.278 71.7609 263.675 67.1018C259.13 62.4427 252.226 60.1132 242.965 60.1132C233.363 60.1132 225.834 62.2155 220.38 66.42C214.925 70.6246 211.09 75.1132 208.874 79.8859L189.783 73.0677C193.192 65.1132 197.738 58.92 203.42 54.4882C209.158 49.9996 215.408 46.8746 222.17 45.1132C228.988 43.295 235.692 42.3859 242.283 42.3859C246.488 42.3859 251.317 42.8973 256.772 43.92C262.283 44.8859 267.596 46.903 272.709 49.9711C277.88 53.0393 282.17 57.67 285.579 63.8632C288.988 70.0564 290.692 78.3518 290.692 88.7496V175H270.579V157.272H269.556C268.192 160.113 265.92 163.153 262.738 166.392C259.556 169.63 255.323 172.386 250.039 174.659C244.755 176.931 238.306 178.068 230.692 178.068ZM233.76 160C241.715 160 248.42 158.437 253.874 155.312C259.385 152.187 263.533 148.153 266.317 143.21C269.158 138.267 270.579 133.068 270.579 127.613V109.204C269.726 110.227 267.851 111.164 264.954 112.017C262.113 112.812 258.817 113.522 255.067 114.147C251.374 114.715 247.766 115.227 244.243 115.681C240.778 116.079 237.965 116.42 235.806 116.704C230.579 117.386 225.692 118.494 221.147 120.028C216.658 121.505 213.022 123.75 210.238 126.761C207.51 129.715 206.147 133.75 206.147 138.863C206.147 145.852 208.732 151.136 213.903 154.715C219.13 158.238 225.749 160 233.76 160Z" fill="white"/>
<path d="M408.131 73.4086L390.063 78.5223C388.927 75.5109 387.251 72.5848 385.035 69.7439C382.876 66.8462 379.921 64.4598 376.171 62.5848C372.421 60.7098 367.62 59.7723 361.768 59.7723C353.756 59.7723 347.08 61.6189 341.739 65.3121C336.455 68.9484 333.813 73.5791 333.813 79.2041C333.813 84.2041 335.631 88.153 339.268 91.0507C342.904 93.9484 348.586 96.3632 356.313 98.295L375.745 103.068C387.449 105.909 396.171 110.255 401.91 116.108C407.648 121.903 410.518 129.375 410.518 138.522C410.518 146.022 408.358 152.727 404.04 158.636C399.779 164.545 393.813 169.204 386.143 172.613C378.472 176.022 369.552 177.727 359.381 177.727C346.029 177.727 334.978 174.829 326.228 169.034C317.478 163.238 311.938 154.772 309.608 143.636L328.699 138.863C330.518 145.909 333.955 151.193 339.012 154.715C344.126 158.238 350.802 160 359.04 160C368.415 160 375.858 158.011 381.37 154.034C386.938 150 389.722 145.17 389.722 139.545C389.722 135 388.131 131.193 384.949 128.125C381.768 125 376.881 122.67 370.29 121.136L348.472 116.022C336.483 113.181 327.677 108.778 322.052 102.812C316.483 96.7893 313.699 89.2609 313.699 80.2268C313.699 72.8405 315.773 66.3064 319.921 60.6246C324.126 54.9427 329.836 50.4825 337.052 47.2439C344.324 44.0052 352.563 42.3859 361.768 42.3859C374.722 42.3859 384.893 45.2268 392.279 50.9086C399.722 56.5905 405.006 64.0905 408.131 73.4086Z" fill="white"/>
<path d="M521.522 73.4086L503.454 78.5223C502.317 75.5109 500.641 72.5848 498.425 69.7439C496.266 66.8462 493.312 64.4598 489.562 62.5848C485.812 60.7098 481.01 59.7723 475.158 59.7723C467.147 59.7723 460.471 61.6189 455.13 65.3121C449.846 68.9484 447.204 73.5791 447.204 79.2041C447.204 84.2041 449.022 88.153 452.658 91.0507C456.295 93.9484 461.976 96.3632 469.704 98.295L489.135 103.068C500.84 105.909 509.562 110.255 515.3 116.108C521.039 121.903 523.908 129.375 523.908 138.522C523.908 146.022 521.749 152.727 517.431 158.636C513.17 164.545 507.204 169.204 499.533 172.613C491.863 176.022 482.942 177.727 472.772 177.727C459.42 177.727 448.368 174.829 439.618 169.034C430.868 163.238 425.329 154.772 422.999 143.636L442.09 138.863C443.908 145.909 447.346 151.193 452.403 154.715C457.516 158.238 464.192 160 472.431 160C481.806 160 489.249 158.011 494.76 154.034C500.329 150 503.113 145.17 503.113 139.545C503.113 135 501.522 131.193 498.34 128.125C495.158 125 490.272 122.67 483.681 121.136L461.863 116.022C449.874 113.181 441.067 108.778 435.442 102.812C429.874 96.7893 427.09 89.2609 427.09 80.2268C427.09 72.8405 429.164 66.3064 433.312 60.6246C437.516 54.9427 443.226 50.4825 450.442 47.2439C457.715 44.0052 465.954 42.3859 475.158 42.3859C488.113 42.3859 498.283 45.2268 505.67 50.9086C513.113 56.5905 518.397 64.0905 521.522 73.4086Z" fill="white"/>
<path d="M597.072 177.727C584.458 177.727 573.577 174.943 564.43 169.375C555.339 163.75 548.322 155.909 543.378 145.852C538.492 135.738 536.049 123.977 536.049 110.568C536.049 97.1586 538.492 85.3405 543.378 75.1132C548.322 64.8291 555.197 56.8177 564.003 51.0791C572.867 45.2837 583.208 42.3859 595.026 42.3859C601.844 42.3859 608.577 43.5223 615.225 45.795C621.873 48.0677 627.924 51.7609 633.378 56.8746C638.833 61.9314 643.18 68.6359 646.418 76.9882C649.657 85.3405 651.276 95.6246 651.276 107.84V116.363H550.367V98.9768H630.822C630.822 91.5905 629.344 84.9996 626.39 79.2041C623.492 73.4086 619.344 68.8348 613.947 65.4825C608.606 62.1302 602.299 60.4541 595.026 60.4541C587.015 60.4541 580.083 62.4427 574.231 66.42C568.435 70.3405 563.975 75.4541 560.85 81.7609C557.725 88.0677 556.162 94.8291 556.162 102.045V113.636C556.162 123.522 557.867 131.903 561.276 138.778C564.742 145.596 569.543 150.795 575.68 154.375C581.816 157.897 588.947 159.659 597.072 159.659C602.356 159.659 607.128 158.92 611.39 157.443C615.708 155.909 619.43 153.636 622.555 150.625C625.68 147.556 628.094 143.75 629.799 139.204L649.231 144.659C647.185 151.25 643.748 157.045 638.918 162.045C634.089 166.988 628.123 170.852 621.02 173.636C613.918 176.363 605.935 177.727 597.072 177.727Z" fill="white"/>
<path d="M669.873 175V44.0905H689.305V63.8632H690.668C693.055 57.3859 697.373 52.1302 703.623 48.0961C709.873 44.0621 716.918 42.045 724.759 42.045C726.236 42.045 728.083 42.0734 730.299 42.1302C732.515 42.1871 734.191 42.2723 735.327 42.3859V62.8405C734.645 62.67 733.083 62.4143 730.64 62.0734C728.253 61.6757 725.725 61.4768 723.055 61.4768C716.691 61.4768 711.009 62.8121 706.009 65.4825C701.066 68.0961 697.145 71.7325 694.248 76.3916C691.407 80.9939 689.986 86.2496 689.986 92.1586V175H669.873Z" fill="white"/>
<path d="M812.305 44.0905V61.1359H744.464V44.0905H812.305ZM764.236 12.7268H784.35V137.5C784.35 143.181 785.174 147.443 786.822 150.284C788.526 153.068 790.685 154.943 793.299 155.909C795.969 156.818 798.782 157.272 801.736 157.272C803.952 157.272 805.77 157.159 807.191 156.931C808.611 156.647 809.748 156.42 810.6 156.25L814.691 174.318C813.327 174.829 811.424 175.34 808.981 175.852C806.537 176.42 803.441 176.704 799.691 176.704C794.009 176.704 788.441 175.483 782.986 173.039C777.589 170.596 773.1 166.875 769.52 161.875C765.998 156.875 764.236 150.568 764.236 142.954V12.7268Z" fill="white"/>
<path d="M882.336 177.727C870.518 177.727 860.148 174.914 851.228 169.289C842.364 163.664 835.432 155.795 830.432 145.681C825.489 135.568 823.018 123.75 823.018 110.227C823.018 96.5905 825.489 84.6871 830.432 74.5166C835.432 64.3461 842.364 56.4484 851.228 50.8234C860.148 45.1984 870.518 42.3859 882.336 42.3859C894.154 42.3859 904.495 45.1984 913.359 50.8234C922.279 56.4484 929.211 64.3461 934.154 74.5166C939.154 84.6871 941.654 96.5905 941.654 110.227C941.654 123.75 939.154 135.568 934.154 145.681C929.211 155.795 922.279 163.664 913.359 169.289C904.495 174.914 894.154 177.727 882.336 177.727ZM882.336 159.659C891.313 159.659 898.699 157.358 904.495 152.755C910.29 148.153 914.58 142.102 917.364 134.602C920.148 127.102 921.54 118.977 921.54 110.227C921.54 101.477 920.148 93.3234 917.364 85.7666C914.58 78.2098 910.29 72.1018 904.495 67.4427C898.699 62.7836 891.313 60.4541 882.336 60.4541C873.358 60.4541 865.972 62.7836 860.177 67.4427C854.381 72.1018 850.091 78.2098 847.307 85.7666C844.523 93.3234 843.131 101.477 843.131 110.227C843.131 118.977 844.523 127.102 847.307 134.602C850.091 142.102 854.381 148.153 860.177 152.755C865.972 157.358 873.358 159.659 882.336 159.659Z" fill="white"/>
<path d="M1025.74 175H1003.58L1067.68 0.454102H1089.49L1153.58 175H1131.43L1079.27 28.0677H1077.9L1025.74 175ZM1033.93 106.818H1123.24V125.568H1033.93V106.818Z" fill="white"/>
<path d="M1189.91 0.454102V175H1168.77V0.454102H1189.91Z" fill="white"/>
<path d="M16.929 153.277L0 153.494V42.3701H111.124L110.798 59.4077H17.0376L16.929 153.277Z" fill="white"/>
<path d="M140.274 179.349H29.1504L29.2589 162.311L123.128 162.203V68.4416L140.274 68.2246V179.349Z" fill="white"/>
<path d="M53.4023 111.854L86.3315 111.854" stroke="#3F4DDC" stroke-width="14.8181"/>
</svg>
